<svg xmlns="http://www.w3.org/2000/svg" width="512" height="512" viewBox="0 0 512 512">
<defs><radialGradient id="g" cx="50%" cy="38%" r="75%">
<stop offset="0%" stop-color="#e5383b"/><stop offset="100%" stop-color="#b71d21"/>
</radialGradient></defs>
<rect x="0" y="0" width="512" height="512" rx="104" fill="url(#g)"/><circle cx="465.4" cy="289.2" r="8" fill="#ffd45e" stroke="#ffb703" stroke-width="1.5"/><circle cx="444.9" cy="352.2" r="8" fill="#ffd45e" stroke="#ffb703" stroke-width="1.5"/><circle cx="405.9" cy="405.9" r="8" fill="#ffd45e" stroke="#ffb703" stroke-width="1.5"/><circle cx="352.2" cy="444.9" r="8" fill="#ffd45e" stroke="#ffb703" stroke-width="1.5"/><circle cx="289.2" cy="465.4" r="8" fill="#ffd45e" stroke="#ffb703" stroke-width="1.5"/><circle cx="222.8" cy="465.4" r="8" fill="#ffd45e" stroke="#ffb703" stroke-width="1.5"/><circle cx="159.8" cy="444.9" r="8" fill="#ffd45e" stroke="#ffb703" stroke-width="1.5"/><circle cx="106.1" cy="405.9" r="8" fill="#ffd45e" stroke="#ffb703" stroke-width="1.5"/><circle cx="67.1" cy="352.2" r="8" fill="#ffd45e" stroke="#ffb703" stroke-width="1.5"/><circle cx="46.6" cy="289.2" r="8" fill="#ffd45e" stroke="#ffb703" stroke-width="1.5"/><circle cx="46.6" cy="222.8" r="8" fill="#ffd45e" stroke="#ffb703" stroke-width="1.5"/><circle cx="67.1" cy="159.8" r="8" fill="#ffd45e" stroke="#ffb703" stroke-width="1.5"/><circle cx="106.1" cy="106.1" r="8" fill="#ffd45e" stroke="#ffb703" stroke-width="1.5"/><circle cx="159.8" cy="67.1" r="8" fill="#ffd45e" stroke="#ffb703" stroke-width="1.5"/><circle cx="222.8" cy="46.6" r="8" fill="#ffd45e" stroke="#ffb703" stroke-width="1.5"/><circle cx="289.2" cy="46.6" r="8" fill="#ffd45e" stroke="#ffb703" stroke-width="1.5"/><circle cx="352.2" cy="67.1" r="8" fill="#ffd45e" stroke="#ffb703" stroke-width="1.5"/><circle cx="405.9" cy="106.1" r="8" fill="#ffd45e" stroke="#ffb703" stroke-width="1.5"/><circle cx="444.9" cy="159.8" r="8" fill="#ffd45e" stroke="#ffb703" stroke-width="1.5"/><circle cx="465.4" cy="222.8" r="8" fill="#ffd45e" stroke="#ffb703" stroke-width="1.5"/><circle cx="256" cy="256" r="158" fill="#fbf0d9"/><path d="M256 256 L406.0 256.0 L362.1 362.1 Z" fill="#2a9d8f"/><path d="M256 256 L362.1 362.1 L256.0 406.0 Z" fill="#fbf0d9"/><path d="M256 256 L256.0 406.0 L149.9 362.1 Z" fill="#2a9d8f"/><path d="M256 256 L149.9 362.1 L106.0 256.0 Z" fill="#fbf0d9"/><path d="M256 256 L106.0 256.0 L149.9 149.9 Z" fill="#2a9d8f"/><path d="M256 256 L149.9 149.9 L256.0 106.0 Z" fill="#fbf0d9"/><path d="M256 256 L256.0 106.0 L362.1 149.9 Z" fill="#2a9d8f"/><path d="M256 256 L362.1 149.9 L406.0 256.0 Z" fill="#fbf0d9"/><line x1="256" y1="256" x2="406.0" y2="256.0" stroke="#ffb703" stroke-width="4" stroke-linecap="round"/><line x1="256" y1="256" x2="362.1" y2="362.1" stroke="#ffb703" stroke-width="4" stroke-linecap="round"/><line x1="256" y1="256" x2="256.0" y2="406.0" stroke="#ffb703" stroke-width="4" stroke-linecap="round"/><line x1="256" y1="256" x2="149.9" y2="362.1" stroke="#ffb703" stroke-width="4" stroke-linecap="round"/><line x1="256" y1="256" x2="106.0" y2="256.0" stroke="#ffb703" stroke-width="4" stroke-linecap="round"/><line x1="256" y1="256" x2="149.9" y2="149.9" stroke="#ffb703" stroke-width="4" stroke-linecap="round"/><line x1="256" y1="256" x2="256.0" y2="106.0" stroke="#ffb703" stroke-width="4" stroke-linecap="round"/><line x1="256" y1="256" x2="362.1" y2="149.9" stroke="#ffb703" stroke-width="4" stroke-linecap="round"/><circle cx="256" cy="256" r="150" fill="none" stroke="#ffb703" stroke-width="13"/><circle cx="256" cy="256" r="30" fill="#e5383b" stroke="#ffb703" stroke-width="6"/><circle cx="256" cy="256" r="9" fill="#ffd45e"/><path d="M256 80 L234 46 L278 46 Z" fill="#ffb703" stroke="#8c1417" stroke-width="4" stroke-linejoin="round"/></svg>